<?xml version="1.0" encoding="UTF-8" standalone="no"?>
<!DOCTYPE svg PUBLIC "-//W3C//DTD SVG 1.1//EN" "http://www.w3.org/Graphics/SVG/1.1/DTD/svg11.dtd">
<svg width="100%" height="100%" viewBox="0 0 1200 1200" version="1.1" xmlns="http://www.w3.org/2000/svg" xmlns:xlink="http://www.w3.org/1999/xlink" xml:space="preserve" xmlns:serif="http://www.serif.com/" style="fill-rule:evenodd;clip-rule:evenodd;stroke-linejoin:round;stroke-miterlimit:2;">
    <path d="M741.845,213.109C739.691,214.068 737.676,215.429 735.908,217.189C734.675,218.418 733.635,219.768 732.791,221.2C727.738,225.843 722.593,230.783 717.347,236.041C597.181,356.487 235.432,715.981 235.432,715.981C232.476,718.918 230.512,722.705 229.813,726.813L194.869,932.248L194.86,932.292L194.81,932.594L194.801,932.647L194.799,932.665L194.701,933.26L194.659,933.632L194.655,933.665L194.65,933.716L194.591,934.241L194.568,934.595L194.561,934.679L194.555,934.799L194.528,935.231L194.525,935.537L194.518,935.687L194.52,935.897L194.516,936.231L194.525,936.47L194.527,936.687L194.545,936.993L194.554,937.239L194.569,937.41L194.585,937.678L194.628,938.074L194.644,938.253L194.66,938.37L194.692,938.658L194.765,939.12L194.786,939.272L194.804,939.363L194.846,939.627L194.945,940.097L194.98,940.283L195.005,940.381L195.047,940.582L195.155,940.993L195.223,941.271L195.261,941.398L195.293,941.523L195.388,941.823L195.512,942.237L195.569,942.397L195.584,942.447L195.638,942.592C196.585,945.331 198.104,947.765 200.029,949.783L200.037,949.792L200.352,950.108L200.666,950.423L200.675,950.432C202.686,952.363 205.115,953.89 207.848,954.852L207.993,954.906L208.043,954.922L208.202,954.98L208.616,955.106L208.916,955.201L209.04,955.234L209.167,955.273L209.445,955.342L209.855,955.452L210.057,955.495L210.155,955.519L210.341,955.556L210.81,955.657L211.074,955.7L211.164,955.717L211.316,955.739L211.778,955.815L212.066,955.847L212.183,955.864L212.362,955.881L212.758,955.926L213.026,955.942L213.196,955.958L213.442,955.969L213.749,955.988L213.966,955.991L214.204,956.001L214.539,955.998L214.749,956L214.899,955.995L215.204,955.992L215.636,955.967L215.757,955.962L215.84,955.955L216.195,955.934L216.72,955.877L216.771,955.872L216.803,955.868L217.176,955.827L217.772,955.732L217.79,955.73L217.842,955.721L218.144,955.673L218.189,955.664L423.765,921.563C427.876,920.881 431.671,918.933 434.621,915.989L442.672,907.956C444.697,907.008 446.595,905.698 448.27,904.03C449.955,902.352 451.278,900.447 452.237,898.412C526.065,824.742 811.621,539.863 916.535,436.049C922.358,430.288 927.793,424.647 932.854,419.128C933.639,418.55 934.389,417.907 935.099,417.2C936.341,415.963 937.387,414.603 938.235,413.157C986.966,358.047 998.723,315.258 996.003,283.116C992.737,244.526 968.475,218.753 951.667,201.903L951.664,201.9L951.639,201.874L951.635,201.871C934.855,184.994 909.182,160.627 870.605,157.202C838.77,154.376 796.424,165.719 741.845,213.109ZM238.943,911.674L400.902,884.809L266.473,749.827L238.943,911.674ZM750.161,259.844L745.664,264.293C645.382,364.808 376.896,631.763 290.686,717.455L433.373,860.729C519.418,774.872 787.474,507.484 888.4,407.616L892.868,403.137L750.161,259.844ZM923.309,230.113L923.298,230.102C911.475,218.21 894.267,199.46 867.068,197.046C844.412,195.034 816.341,204.176 780.058,233.179L919.655,373.35C948.807,337.187 958.064,309.154 956.145,286.49C953.842,259.281 935.164,241.996 923.321,230.124L923.309,230.113Z"/>
</svg>
