<?xml version="1.0" encoding="UTF-8" standalone="no"?>
<!DOCTYPE svg PUBLIC "-//W3C//DTD SVG 1.1//EN" "http://www.w3.org/Graphics/SVG/1.1/DTD/svg11.dtd">
<svg width="100%" height="100%" viewBox="0 0 1200 1200" version="1.1" xmlns="http://www.w3.org/2000/svg" xmlns:xlink="http://www.w3.org/1999/xlink" xml:space="preserve" xmlns:serif="http://www.serif.com/" style="fill-rule:evenodd;clip-rule:evenodd;stroke-linejoin:round;stroke-miterlimit:2;">
    <path d="M576,124C326.534,124 124,326.534 124,576C124,825.466 326.534,1028 576,1028C825.466,1028 1028,825.466 1028,576C1028,326.534 825.466,124 576,124ZM576,164C803.389,164 988,348.611 988,576C988,803.389 803.389,988 576,988C348.611,988 164,803.389 164,576C164,348.611 348.611,164 576,164Z"/>
    <g transform="matrix(6.12323e-17,1,-1,6.12323e-17,912,168)">
        <path d="M390.079,476.553C393.01,470.357 392.564,463.092 388.898,457.301C385.231,451.51 378.854,448 372,448C355.974,448 340.876,455.231 328.862,468.445C314.145,484.631 304,510.554 304,540C304,569.446 314.145,595.369 328.862,611.555C340.876,624.769 355.974,632 372,632C378.854,632 385.231,628.49 388.898,622.699C392.564,616.908 393.01,609.643 390.079,603.447C383.08,588.652 377.6,565.294 377.6,540C377.6,514.706 383.08,491.348 390.079,476.553Z"/>
    </g>
    <g transform="matrix(6.12323e-17,1,-1,6.12323e-17,1320,168)">
        <path d="M390.079,476.553C393.01,470.357 392.564,463.092 388.898,457.301C385.231,451.51 378.854,448 372,448C355.974,448 340.876,455.231 328.862,468.445C314.145,484.631 304,510.554 304,540C304,569.446 314.145,595.369 328.862,611.555C340.876,624.769 355.974,632 372,632C378.854,632 385.231,628.49 388.898,622.699C392.564,616.908 393.01,609.643 390.079,603.447C383.08,588.652 377.6,565.294 377.6,540C377.6,514.706 383.08,491.348 390.079,476.553Z"/>
    </g>
    <g transform="matrix(6.12323e-17,-1,1,6.12323e-17,-114,1320)">
        <path d="M559.307,569.219C560.932,563.209 559.665,556.786 555.881,551.842C552.096,546.899 546.226,544 540,544C526.579,544 512.982,551.05 501.83,566.233C484.755,589.48 472,636.061 472,690C472,743.939 484.755,790.52 501.83,813.767C512.982,828.95 526.579,836 540,836C546.226,836 552.096,833.101 555.881,828.158C559.665,823.214 560.932,816.791 559.307,810.781C551.689,782.601 545.6,738.176 545.6,690C545.6,641.824 551.689,597.399 559.307,569.219Z"/>
    </g>
</svg>
