<?xml version="1.0" encoding="UTF-8" standalone="no"?>
<!DOCTYPE svg PUBLIC "-//W3C//DTD SVG 1.1//EN" "http://www.w3.org/Graphics/SVG/1.1/DTD/svg11.dtd">
<svg width="100%" height="100%" viewBox="0 0 1200 1200" version="1.1" xmlns="http://www.w3.org/2000/svg" xmlns:xlink="http://www.w3.org/1999/xlink" xml:space="preserve" xmlns:serif="http://www.serif.com/" style="fill-rule:evenodd;clip-rule:evenodd;stroke-linejoin:round;stroke-miterlimit:2;">
    <path d="M673.419,205.803L205.153,670.913C129.186,746.367 128.771,869.302 204.225,945.269C279.68,1021.24 402.614,1021.65 478.581,946.197L946.847,481.087C1022.81,405.633 1023.23,282.698 947.775,206.731C872.32,130.765 749.386,130.349 673.419,205.803ZM453.285,480.832L670.336,699.356L450.393,917.817C390.089,977.714 292.502,977.384 232.605,917.08C172.708,856.777 173.038,759.19 233.341,699.293L453.285,480.832ZM698.715,671.168L481.664,452.644L701.607,234.183C761.911,174.286 859.498,174.616 919.395,234.92C979.292,295.223 978.962,392.81 918.659,452.707L698.715,671.168Z"/>
</svg>
