<?xml version="1.0" encoding="UTF-8" standalone="no"?>
<!DOCTYPE svg PUBLIC "-//W3C//DTD SVG 1.1//EN" "http://www.w3.org/Graphics/SVG/1.1/DTD/svg11.dtd">
<svg width="100%" height="100%" viewBox="0 0 1200 1200" version="1.1" xmlns="http://www.w3.org/2000/svg" xmlns:xlink="http://www.w3.org/1999/xlink" xml:space="preserve" xmlns:serif="http://www.serif.com/" style="fill-rule:evenodd;clip-rule:evenodd;stroke-linejoin:round;stroke-miterlimit:2;">
    <path d="M268,534L268,966C268,977.046 276.954,986 288,986L504,986C515.046,986 524,977.046 524,966L524,698C524,698 700,698 700,698C700,698 700,966 700,966C700,977.046 708.954,986 720,986L936,986C947.046,986 956,977.046 956,966L956,534C956,522.962 947.038,514 936,514C924.962,514 916,522.962 916,534L916,946C916,946 740,946 740,946C740,946 740,678 740,678C740,666.954 731.046,658 720,658L504,658C492.954,658 484,666.954 484,678L484,946C484,946 308,946 308,946C308,860.992 308,534 308,534C308,522.962 299.038,514 288,514C276.962,514 268,522.962 268,534ZM192.547,573.575C192.547,573.575 540.979,292.894 612,235.682C612,235.682 1031.45,573.575 1031.45,573.575C1040.05,580.5 1052.65,579.143 1059.58,570.547C1066.5,561.95 1065.14,549.35 1056.55,542.425L624.547,194.425C617.223,188.525 606.777,188.525 599.453,194.425L167.453,542.425C158.857,549.35 157.5,561.95 164.425,570.547C171.35,579.143 183.95,580.5 192.547,573.575Z"/>
</svg>
