<?xml version="1.0" encoding="UTF-8" standalone="no"?>
<!DOCTYPE svg PUBLIC "-//W3C//DTD SVG 1.1//EN" "http://www.w3.org/Graphics/SVG/1.1/DTD/svg11.dtd">
<svg width="100%" height="100%" viewBox="0 0 1200 1200" version="1.1" xmlns="http://www.w3.org/2000/svg" xmlns:xlink="http://www.w3.org/1999/xlink" xml:space="preserve" xmlns:serif="http://www.serif.com/" style="fill-rule:evenodd;clip-rule:evenodd;stroke-linejoin:round;stroke-miterlimit:2;">
    <g transform="matrix(0.793988,0,0,0.931034,142.706,50.5242)">
        <path d="M323.404,529.445C297.747,514.683 277.278,506.489 262.668,486.828C253.012,473.835 246.11,455.957 240.86,428.538C230.566,374.775 252.055,324.657 292.355,283.725C355.614,219.473 464.448,177.481 576,177.481C759.543,177.481 924.718,289.979 910.899,430.201C903.242,507.907 840.386,533.714 773.587,558.389C692.881,588.2 606.643,616.547 568.223,697.035C562.62,706.209 532.229,761.586 551.174,855.637C553.528,867.322 566.563,875.179 580.265,873.171C593.966,871.164 603.179,860.048 600.826,848.363C583.719,763.438 613.027,716.69 613.027,716.69C613.566,715.871 614.041,715.022 614.45,714.15C647.08,644.524 724.231,623.44 793.611,597.812C877.288,566.903 951.508,531.139 961.101,433.799C977.201,270.426 789.847,134.519 576,134.519C449.124,134.519 325.722,183.02 253.773,256.099C203.933,306.72 178.409,368.972 191.14,435.462C197.864,470.578 207.749,493.186 220.115,509.827C238.539,534.619 262.875,546.446 295.229,565.061C306.754,571.691 322.423,569.095 330.199,559.267C337.974,549.438 334.929,536.076 323.404,529.445Z"/>
    </g>
    <g transform="matrix(1.5,0,0,1.5,-264,-543.766)">
        <circle cx="576" cy="1008" r="24" style="fill:rgb(1,0,1);"/>
    </g>
    <g transform="matrix(1.5,0,0,1.5,-264,-543.766)">
        <circle cx="576" cy="1008" r="32.604"/>
    </g>
</svg>
