<?xml version="1.0" encoding="UTF-8" standalone="no"?>
<!DOCTYPE svg PUBLIC "-//W3C//DTD SVG 1.1//EN" "http://www.w3.org/Graphics/SVG/1.1/DTD/svg11.dtd">
<svg width="100%" height="100%" viewBox="0 0 1200 1200" version="1.1" xmlns="http://www.w3.org/2000/svg" xmlns:xlink="http://www.w3.org/1999/xlink" xml:space="preserve" xmlns:serif="http://www.serif.com/" style="fill-rule:evenodd;clip-rule:evenodd;stroke-linejoin:round;stroke-miterlimit:2;">
    <g transform="matrix(1,0,0,1,-78,102)">
        <path d="M1020,884C1026.16,884 1031.97,881.163 1035.76,876.308C1039.55,871.454 1040.9,865.124 1039.4,859.149L895.403,283.149C893.177,274.246 885.177,268 876,268L432,268C422.823,268 414.823,274.246 412.597,283.149L268.597,859.149C267.103,865.124 268.446,871.454 272.236,876.308C276.026,881.163 281.841,884 288,884L1020,884ZM994.384,844L313.616,844C313.616,844 447.616,308 447.616,308L860.384,308C882.54,396.622 994.384,844 994.384,844L994.384,844Z"/>
    </g>
    <path d="M579,160.226C577.974,160.069 576.924,159.993 575.854,160.001C526.232,160.362 491.815,175.734 467.715,196.385C411.425,244.621 412.001,324.21 412.001,324.21C412,324 412,468 412,468C412,479.038 420.962,488 432,488C443.038,488 452,479.038 452,468L452,324C452,323.93 452,323.86 451.999,323.79C451.999,323.79 451.101,263.299 493.743,226.759C512.043,211.077 538.465,200.274 576.146,199.999C577.115,199.992 578.068,199.916 579,199.772C579.932,199.916 580.885,199.992 581.854,199.999C619.535,200.274 645.957,211.077 664.257,226.759C706.898,263.299 706.001,323.79 706.001,323.79C706,323.86 706,323.93 706,324L706,468C706,479.038 714.961,488 726,488C737.038,488 746,479.038 746,468L746,324C745.999,324.21 746.575,244.621 690.285,196.385C666.185,175.734 631.768,160.362 582.146,160.001C581.076,159.993 580.025,160.069 579,160.226Z"/>
    <g transform="matrix(1,0,0,1,144,-108)">
        <circle cx="288" cy="576" r="12" style="fill:rgb(235,235,235);"/>
    </g>
    <g transform="matrix(1,0,0,1,144,-108)">
        <path d="M288,544C270.339,544 256,558.339 256,576C256,593.661 270.339,608 288,608C305.661,608 320,593.661 320,576C320,558.339 305.661,544 288,544ZM288,584C283.585,584 280,580.415 280,576C280,571.585 283.585,568 288,568C292.415,568 296,571.585 296,576C296,580.415 292.415,584 288,584Z"/>
    </g>
    <g transform="matrix(1,0,0,1,438,-108)">
        <circle cx="288" cy="576" r="12" style="fill:rgb(235,235,235);"/>
    </g>
    <g transform="matrix(1,0,0,1,438,-108)">
        <path d="M288,544C270.339,544 256,558.339 256,576C256,593.661 270.339,608 288,608C305.661,608 320,593.661 320,576C320,558.339 305.661,544 288,544ZM288,584C283.585,584 280,580.415 280,576C280,571.585 283.585,568 288,568C292.415,568 296,571.585 296,576C296,580.415 292.415,584 288,584Z"/>
    </g>
</svg>
