<?xml version="1.0" encoding="UTF-8" standalone="no"?>
<!DOCTYPE svg PUBLIC "-//W3C//DTD SVG 1.1//EN" "http://www.w3.org/Graphics/SVG/1.1/DTD/svg11.dtd">
<svg width="100%" height="100%" viewBox="0 0 1200 1200" version="1.1" xmlns="http://www.w3.org/2000/svg" xmlns:xlink="http://www.w3.org/1999/xlink" xml:space="preserve" xmlns:serif="http://www.serif.com/" style="fill-rule:evenodd;clip-rule:evenodd;stroke-linejoin:round;stroke-miterlimit:2;">
    <path d="M556,576L556,864C556,875.038 564.962,884 576,884C587.038,884 596,875.038 596,864L596,576C596,564.962 587.038,556 576,556C564.962,556 556,564.962 556,576Z"/>
    <g transform="matrix(1,0,0,1,144,0)">
        <path d="M556,576L556,864C556,875.038 564.962,884 576,884C587.038,884 596,875.038 596,864L596,576C596,564.962 587.038,556 576,556C564.962,556 556,564.962 556,576Z"/>
    </g>
    <g transform="matrix(1,0,0,1,-144,0)">
        <path d="M556,576L556,864C556,875.038 564.962,884 576,884C587.038,884 596,875.038 596,864L596,576C596,564.962 587.038,556 576,556C564.962,556 556,564.962 556,576Z"/>
    </g>
    <path d="M450.773,267.203C408.539,267.134 362.765,267.299 325.398,268.004C276.152,268.933 250.932,297.953 238.727,332.882C222.758,378.586 231.585,435.153 231.585,435.153C233.134,444.859 241.506,452 251.335,452L268,452L268,936C268,936.776 268.045,937.552 268.135,938.323C272.802,978.238 289.804,994.02 298.761,999.669C302.904,1003.97 310.645,1009.74 324.843,1014.92C342.558,1021.38 374.595,1028.18 432.064,1028C539.351,1027.66 575.812,1028 575.812,1028C575.937,1028 576.063,1028 576.188,1028C576.188,1028 612.649,1027.66 719.936,1028C777.405,1028.18 809.442,1021.38 827.157,1014.92C841.355,1009.74 849.097,1003.97 853.243,999.666C862.196,994.02 879.198,978.239 883.865,938.323C883.955,937.552 884,936.776 884,936L884,452L911.999,452C923.025,452 931.971,443.076 931.999,432.05C932.167,365.017 914.475,326.059 894.51,303.063C862.945,266.706 823.602,266.982 818.393,267.188L700,264.607C700,264.607 684.485,228.576 665.553,206.145C643.878,180.464 613.678,172.14 576.074,172C576.025,172 575.975,172 575.926,172C538.322,172.14 512.019,182.813 493.421,197.015C465.88,218.046 455.034,247.606 450.773,267.203ZM844,452L308,452L308.001,934.773C310.671,955.083 320.321,965.511 320.855,966.072C323.698,967.472 326.158,969.527 328.037,972.055C329.37,972.874 337.1,977.431 348.338,980.338C365.194,984.697 391.412,988.13 431.936,988C535.194,987.669 573.075,987.974 575.992,987.999C578.875,987.974 616.738,987.669 720.064,988C760.588,988.13 786.806,984.697 803.662,980.338C814.9,977.431 822.63,972.874 823.963,972.055C825.843,969.526 828.302,967.471 831.145,966.072C831.679,965.511 841.33,955.082 844,934.767L844,452ZM462.492,307.225C417.405,307.107 366.784,307.23 326.153,307.996C289.441,308.689 276.697,337.208 271.808,364.246C268.603,381.971 268.688,399.635 269.423,412L891.433,412L891.433,412C888.884,370.806 878.018,345.082 864.306,329.287C844.52,306.498 820.081,307.153 820.081,307.153C819.726,307.174 819.37,307.184 819.015,307.185L687.827,307.627C686.668,307.858 685.469,307.984 684.244,307.999C682.889,308.015 681.563,307.896 680.279,307.652L577.081,308C576.98,308 576.878,308 576.776,307.999C576.776,307.999 530.866,307.452 473.394,307.257C471.604,307.764 469.711,308.022 467.756,307.999C465.93,307.976 464.164,307.709 462.492,307.225ZM660.371,267.719C656.695,255.515 649.27,240.235 634.303,228.806C621.21,218.809 602.458,212.111 575.97,212C549.528,212.116 530.785,218.812 517.697,228.806C502.886,240.116 495.459,255.199 491.742,267.339C538.761,267.557 574.473,267.969 577.097,268L660.371,267.719Z"/>
</svg>
